<?xml version="1.0" encoding="UTF-8" standalone="no"?>
<svg
   width="101"
   height="65"
   viewBox="0 0 94.687501 60.9375"
   id="svg2"
   version="1.1"
   inkscape:version="1.3 (0e150ed6c4, 2023-07-21)"
   sodipodi:docname="logo-mt.svg"
   inkscape:export-filename="D:\dev\www\kliky-mt.cz\img\logo-mt.png"
   inkscape:export-xdpi="96"
   inkscape:export-ydpi="96"
   xmlns:inkscape="http://www.inkscape.org/namespaces/inkscape"
   xmlns:sodipodi="http://sodipodi.sourceforge.net/DTD/sodipodi-0.dtd"
   xmlns="http://www.w3.org/2000/svg"
   xmlns:svg="http://www.w3.org/2000/svg"
   xmlns:rdf="http://www.w3.org/1999/02/22-rdf-syntax-ns#"
   xmlns:cc="http://creativecommons.org/ns#"
   xmlns:dc="http://purl.org/dc/elements/1.1/">
  <defs
     id="defs4">
    <clipPath
       id="clipPath4150"
       clipPathUnits="userSpaceOnUse">
      <path
         inkscape:connector-curvature="0"
         id="path4152"
         d="M 0,136.063 H 212.598 V 0 H 0 Z" />
    </clipPath>
    <clipPath
       id="clipPath4176"
       clipPathUnits="userSpaceOnUse">
      <path
         inkscape:connector-curvature="0"
         id="path4178"
         d="M 0,841.89 H 595.275 V 0 H 0 Z" />
    </clipPath>
  </defs>
  <sodipodi:namedview
     id="base"
     pagecolor="#ffffff"
     bordercolor="#fea601"
     borderopacity="1"
     inkscape:pageopacity="0.0"
     inkscape:pageshadow="2"
     inkscape:zoom="9.661459"
     inkscape:cx="40.418326"
     inkscape:cy="31.930995"
     inkscape:document-units="px"
     inkscape:current-layer="layer1"
     showgrid="false"
     showguides="true"
     inkscape:guide-bbox="true"
     inkscape:window-width="2560"
     inkscape:window-height="1369"
     inkscape:window-x="-8"
     inkscape:window-y="-8"
     inkscape:window-maximized="1"
     fit-margin-top="0"
     fit-margin-left="0"
     fit-margin-right="0"
     fit-margin-bottom="0"
     inkscape:document-rotation="0"
     units="px"
     borderlayer="true"
     inkscape:showpageshadow="2"
     inkscape:pagecheckerboard="0"
     inkscape:deskcolor="#d1d1d1">
    <sodipodi:guide
       position="745.66825,7.9937359"
       orientation="0,1"
       id="guide4314"
       inkscape:locked="false" />
    <sodipodi:guide
       position="534.23968,145.85088"
       orientation="1,0"
       id="guide4320"
       inkscape:locked="false" />
  </sodipodi:namedview>
  <metadata
     id="metadata7">
    <rdf:RDF>
      <cc:Work
         rdf:about="">
        <dc:format>image/svg+xml</dc:format>
        <dc:type
           rdf:resource="http://purl.org/dc/dcmitype/StillImage" />
      </cc:Work>
    </rdf:RDF>
  </metadata>
  <g
     inkscape:label="Vrstva 1"
     inkscape:groupmode="layer"
     id="layer1"
     transform="translate(-66.474612,-46.893288)">
    <path
       d="M 66.474612,46.893288 H 161.16211 V 107.83079 H 66.474612 Z"
       style="fill:#000000;fill-opacity:1;fill-rule:evenodd;stroke:none;stroke-width:0.444277"
       id="path4170"
       inkscape:connector-curvature="0" />
    <g
       id="g4172"
       transform="matrix(0.60166642,0,0,-0.60166642,-56.89827,352.63107)">
      <g
         id="g4174"
         clip-path="url(#clipPath4176)">
        <g
           id="g4180"
           transform="translate(244.0547,460.623)">
          <path
             d="m 0,0 c 0.504,1.943 0.936,3.888 1.44,5.904 1.296,5.112 2.808,10.224 4.176,15.335 0.792,3.097 1.584,6.193 2.304,9.289 l 0.504,0.287 19.513,0.217 0.431,-0.432 c 0.216,-8.712 0.361,-12.529 1.008,-24.481 0.432,-8.567 0.936,-17.136 1.368,-25.703 l -0.432,-0.433 c -5.904,0.072 -7.992,0 -14.112,-0.215 l -0.36,0.431 -0.576,28.153 V 19.151 L 12.6,9.359 11.448,4.968 4.896,-19.584 4.32,-20.017 c -4.752,0.072 -6.048,0.072 -11.232,-0.215 l -0.504,0.431 c -2.88,11.233 -3.6,14.041 -5.904,22.68 l -1.152,4.249 -3.384,12.455 -0.288,-10.224 C -18.288,3.24 -18.432,-2.881 -18.432,-9 c 0,-3.744 0.072,-6.769 0.144,-10.584 l -0.504,-0.433 -12.024,-0.215 -0.36,0.431 c 1.44,20.16 1.728,26.28 2.376,50.257 l 0.432,0.359 h 9.72 c 3.456,0.073 6.84,0.145 10.224,0.217 l 0.432,-0.217 z"
             style="fill:#ffffff;fill-opacity:1;fill-rule:nonzero;stroke:none"
             id="path4182"
             inkscape:connector-curvature="0" />
        </g>
        <g
           id="g4184"
           transform="translate(295.3281,467.502)">
          <path
             d="m 0,0 c -1.375,1.925 -2.09,2.915 -2.09,4.015 0,1.154 0.881,2.42 2.365,2.42 C 0.551,6.435 2.586,6.38 2.586,3.85 2.586,1.979 1.045,0.825 0,0 m 20.35,-8.746 -5.446,6.6 L 14.465,-2.2 C 12.98,-6.601 11.166,-9.405 9.186,-11.825 l -4.622,5.94 C 9.404,-2.365 11,0.11 11,3.685 11,5.939 10.23,8.415 8.195,10.284 5.83,12.54 1.65,12.76 0.221,12.76 c -5.5,0 -11.826,-2.476 -11.826,-10.066 0,-3.849 1.65,-6.049 3.191,-8.085 -3.301,-2.035 -8.417,-5.389 -8.417,-11.439 0,-7.26 6.491,-10.945 12.927,-10.945 4.343,0 7.754,1.375 10.615,3.189 l 1.814,-2.254 0.44,-0.275 c 2.256,0.109 4.564,0.164 6.82,0.219 1.76,0 3.52,0 5.279,-0.055 l 0.276,0.496 c -2.969,3.244 -3.85,4.18 -7.094,8.359 3.959,5.006 4.453,5.666 6.215,8.745 z M 1.869,-18.205 c -1.154,-0.551 -2.09,-0.99 -3.519,-0.99 -2.53,0 -3.905,1.65 -3.905,3.519 0,1.76 1.594,2.861 2.53,3.575 z"
             style="fill:#ffffff;fill-opacity:1;fill-rule:nonzero;stroke:none"
             id="path4186"
             inkscape:connector-curvature="0" />
        </g>
        <g
           id="g4188"
           transform="translate(343.8203,480.7109)">
          <path
             d="m 0,0 c 0,-4.464 -0.072,-8.929 -0.072,-13.393 0,-8.639 0.142,-17.135 0.359,-26.208 l -0.504,-0.503 c -6.191,0.071 -8.209,0 -14.976,-0.216 l -0.432,0.431 c 0.287,14.76 0.359,19.153 0.432,39.745 l -11.448,-0.289 -0.361,0.361 0.434,10.368 0.504,0.432 h 37.656 l 0.359,-0.073 C 11.592,5.976 11.52,4.536 11.375,0.071 L 10.943,-0.36 Z"
             style="fill:#ffffff;fill-opacity:1;fill-rule:nonzero;stroke:none"
             id="path4190"
             inkscape:connector-curvature="0" />
        </g>
        <g
           id="g4192"
           transform="translate(230.0327,425.751)">
          <path
             d="m 0,0 c 0,0.885 -0.153,1.471 -0.461,1.755 -0.307,0.286 -0.811,0.428 -1.515,0.428 -0.591,0 -1.204,-0.29 -1.835,-0.871 -0.021,-0.676 -0.033,-1.337 -0.033,-1.984 0,-0.925 0.018,-2.303 0.051,-4.134 h -1.512 c 0.122,1.577 0.184,3.179 0.184,4.806 0,0.885 -0.154,1.471 -0.461,1.755 -0.308,0.286 -0.799,0.428 -1.474,0.428 -0.691,0 -1.339,-0.29 -1.942,-0.871 0,-1.755 0.011,-3.794 0.033,-6.118 h -1.511 c 0.106,1.881 0.158,3.243 0.158,4.084 0,1.278 -0.124,2.534 -0.373,3.768 L -9.23,3.254 -9.081,2.25 h 0.083 c 0.72,0.735 1.519,1.104 2.398,1.104 1.313,0 2.157,-0.369 2.533,-1.104 h 0.09 c 0.836,0.735 1.661,1.104 2.475,1.104 0.93,0 1.632,-0.205 2.107,-0.615 C 1.082,2.33 1.32,1.607 1.32,0.573 1.32,0.468 1.314,0.26 1.303,-0.05 1.292,-0.36 1.287,-0.567 1.287,-0.672 c 0,-0.925 0.011,-2.303 0.033,-4.134 H -0.191 C -0.063,-3.356 0,-1.754 0,0"
             style="fill:#ffffff;fill-opacity:1;fill-rule:nonzero;stroke:none"
             id="path4194"
             inkscape:connector-curvature="0" />
        </g>
        <g
           id="g4196"
           transform="translate(238.2915,422.5552)">
          <path
             d="m 0,0 c -0.027,0.841 -0.042,1.597 -0.042,2.266 -1.04,0 -1.831,-0.078 -2.373,-0.232 -0.908,-0.277 -1.361,-0.805 -1.361,-1.586 0,-0.752 0.531,-1.129 1.593,-1.129 0.912,0 1.641,0.227 2.183,0.681 M 1.47,-1.61 0.166,-1.66 c -0.066,0.271 -0.1,0.528 -0.1,0.772 h -0.083 c -0.68,-0.62 -1.607,-0.93 -2.781,-0.93 -0.636,0 -1.183,0.187 -1.642,0.56 -0.46,0.374 -0.69,0.906 -0.69,1.598 0,0.852 0.359,1.537 1.079,2.055 0.72,0.517 2.056,0.79 4.009,0.817 0.018,0.133 0.025,0.286 0.025,0.457 0,0.681 -0.181,1.134 -0.544,1.361 -0.362,0.227 -0.911,0.341 -1.647,0.341 -0.869,0 -1.724,-0.108 -2.564,-0.324 l 0.14,1.145 c 0.83,0.238 1.785,0.357 2.863,0.357 0.986,0 1.747,-0.203 2.284,-0.61 C 1.052,5.532 1.319,4.839 1.319,3.86 1.319,3.6 1.308,3.128 1.282,2.444 1.258,1.761 1.245,1.306 1.245,1.079 1.245,0.072 1.319,-0.825 1.47,-1.61"
             style="fill:#ffffff;fill-opacity:1;fill-rule:nonzero;stroke:none"
             id="path4198"
             inkscape:connector-curvature="0" />
        </g>
        <g
           id="g4200"
           transform="translate(248.8999,420.9448)">
          <path
             d="m 0,0 h -1.512 c 0.122,1.456 0.184,3.043 0.184,4.765 0,0.852 -0.174,1.434 -0.52,1.747 -0.345,0.313 -0.84,0.469 -1.481,0.469 -0.786,0 -1.511,-0.285 -2.175,-0.855 0,-1.887 0.011,-3.929 0.033,-6.126 h -1.51 c 0.093,1.881 0.141,3.243 0.141,4.084 0,1.295 -0.122,2.551 -0.365,3.769 l 1.461,0.207 0.157,-1.013 h 0.066 c 0.82,0.742 1.697,1.113 2.632,1.113 0.918,0 1.629,-0.204 2.133,-0.61 C -0.252,7.143 0,6.419 0,5.379 0,5.274 -0.006,5.066 -0.018,4.756 -0.028,4.446 -0.033,4.239 -0.033,4.134 -0.033,3.209 -0.022,1.832 0,0"
             style="fill:#ffffff;fill-opacity:1;fill-rule:nonzero;stroke:none"
             id="path4202-4"
             inkscape:connector-curvature="0" />
        </g>
        <g
           id="g4204"
           transform="translate(258.0718,420.9531)">
          <path
             d="m 0,0 -1.287,-0.05 c -0.077,0.31 -0.116,0.565 -0.116,0.764 h -0.083 c -0.737,-0.62 -1.63,-0.93 -2.682,-0.93 -0.957,0 -1.652,0.231 -2.087,0.693 -0.434,0.462 -0.651,1.394 -0.651,2.794 0,0.199 0.005,0.495 0.015,0.888 0.012,0.393 0.018,0.661 0.018,0.805 0,0.813 -0.048,1.771 -0.142,2.872 l 1.544,0.058 C -5.537,6.826 -5.57,5.913 -5.57,5.155 c 0,-1.743 0.112,-2.879 0.336,-3.407 0.224,-0.529 0.729,-0.793 1.515,-0.793 0.885,0 1.615,0.221 2.192,0.664 0,3.076 -0.029,5.149 -0.084,6.217 l 1.494,0.058 C -0.161,6.854 -0.184,5.415 -0.184,3.578 -0.184,2.399 -0.122,1.207 0,0"
             style="fill:#ffffff;fill-opacity:1;fill-rule:nonzero;stroke:none"
             id="path4206"
             inkscape:connector-curvature="0" />
        </g>
        <g
           id="g4208"
           transform="translate(264.8442,432.7236)">
          <path
             d="m 0,0 -0.241,-1.096 c -0.332,0.083 -0.664,0.125 -0.996,0.125 -0.509,0 -0.854,-0.201 -1.034,-0.602 -0.179,-0.401 -0.269,-1.23 -0.269,-2.486 0.548,0 1.314,0.028 2.299,0.083 L -0.29,-5.213 c -1.118,0.033 -1.868,0.05 -2.25,0.05 0,-2.518 0.033,-4.723 0.1,-6.616 h -1.487 c 0.078,1.843 0.117,4.048 0.117,6.616 -0.337,0 -0.927,-0.017 -1.768,-0.05 l 0.057,1.22 c 0.764,-0.044 1.334,-0.066 1.711,-0.066 0,1.466 0.205,2.533 0.614,3.2 0.41,0.667 1.062,1 1.959,1 C -0.844,0.141 -0.432,0.094 0,0"
             style="fill:#ffffff;fill-opacity:1;fill-rule:nonzero;stroke:none"
             id="path4210"
             inkscape:connector-curvature="0" />
        </g>
        <g
           id="g4212"
           transform="translate(270.7046,422.5552)">
          <path
             d="m 0,0 c -0.027,0.841 -0.042,1.597 -0.042,2.266 -1.04,0 -1.831,-0.078 -2.373,-0.232 -0.908,-0.277 -1.361,-0.805 -1.361,-1.586 0,-0.752 0.531,-1.129 1.593,-1.129 0.912,0 1.641,0.227 2.183,0.681 M 1.47,-1.61 0.166,-1.66 c -0.066,0.271 -0.1,0.528 -0.1,0.772 h -0.083 c -0.68,-0.62 -1.607,-0.93 -2.781,-0.93 -0.636,0 -1.183,0.187 -1.642,0.56 -0.46,0.374 -0.69,0.906 -0.69,1.598 0,0.852 0.359,1.537 1.079,2.055 0.72,0.517 2.056,0.79 4.009,0.817 0.018,0.133 0.025,0.286 0.025,0.457 0,0.681 -0.181,1.134 -0.544,1.361 -0.362,0.227 -0.911,0.341 -1.647,0.341 -0.869,0 -1.724,-0.108 -2.564,-0.324 l 0.14,1.145 c 0.83,0.238 1.785,0.357 2.863,0.357 0.986,0 1.747,-0.203 2.284,-0.61 C 1.052,5.532 1.319,4.839 1.319,3.86 1.319,3.6 1.308,3.128 1.282,2.444 1.258,1.761 1.245,1.306 1.245,1.079 1.245,0.072 1.319,-0.825 1.47,-1.61"
             style="fill:#ffffff;fill-opacity:1;fill-rule:nonzero;stroke:none"
             id="path4214"
             inkscape:connector-curvature="0" />
        </g>
        <g
           id="g4216"
           transform="translate(280.3179,422.2148)">
          <path
             d="m 0,0 -0.084,-1.112 c -0.447,-0.255 -1.048,-0.382 -1.801,-0.382 -1.433,0 -2.529,0.395 -3.287,1.187 -0.758,0.791 -1.137,1.746 -1.137,2.864 0,1.184 0.399,2.202 1.196,3.054 0.797,0.852 1.85,1.279 3.162,1.279 0.658,0 1.195,-0.067 1.61,-0.2 L -0.564,5.387 c -0.582,0.216 -1.171,0.324 -1.769,0.324 -0.786,0 -1.411,-0.274 -1.876,-0.822 -0.465,-0.548 -0.697,-1.234 -0.697,-2.058 0,-0.897 0.276,-1.644 0.83,-2.242 0.554,-0.597 1.336,-0.896 2.349,-0.896 0.415,0 0.991,0.102 1.727,0.307"
             style="fill:#ffffff;fill-opacity:1;fill-rule:nonzero;stroke:none"
             id="path4218"
             inkscape:connector-curvature="0" />
        </g>
        <g
           id="g4220"
           transform="translate(286.5093,422.0903)">
          <path
             d="M 0,0 -0.1,-1.079 C -0.537,-1.24 -0.949,-1.32 -1.336,-1.32 c -0.996,0 -1.678,0.254 -2.043,0.759 -0.365,0.507 -0.547,1.413 -0.547,2.719 0,0.847 0.005,1.951 0.016,3.312 -0.31,0 -0.766,-0.016 -1.369,-0.05 l 0.05,1.204 c 0.525,-0.033 0.996,-0.05 1.411,-0.05 0,0.332 0.027,1.121 0.083,2.366 l 1.303,0.133 C -2.526,7.911 -2.573,7.078 -2.573,6.574 c 0.542,0 1.339,0.028 2.39,0.083 L -0.24,5.42 c -0.996,0.034 -1.796,0.05 -2.4,0.05 -0.01,-0.835 -0.016,-1.776 -0.016,-2.822 0,-1.14 0.12,-1.894 0.361,-2.262 0.24,-0.368 0.688,-0.552 1.34,-0.552 0.217,0 0.534,0.055 0.955,0.166"
             style="fill:#ffffff;fill-opacity:1;fill-rule:nonzero;stroke:none"
             id="path4222"
             inkscape:connector-curvature="0" />
        </g>
        <g
           id="g4224"
           transform="translate(295.0601,420.9531)">
          <path
             d="m 0,0 -1.287,-0.05 c -0.077,0.31 -0.116,0.565 -0.116,0.764 h -0.083 c -0.737,-0.62 -1.63,-0.93 -2.682,-0.93 -0.957,0 -1.652,0.231 -2.087,0.693 -0.434,0.462 -0.651,1.394 -0.651,2.794 0,0.199 0.005,0.495 0.015,0.888 0.012,0.393 0.018,0.661 0.018,0.805 0,0.813 -0.048,1.771 -0.142,2.872 l 1.544,0.058 C -5.537,6.826 -5.57,5.913 -5.57,5.155 c 0,-1.743 0.112,-2.879 0.336,-3.407 0.224,-0.529 0.729,-0.793 1.515,-0.793 0.885,0 1.615,0.221 2.192,0.664 0,3.076 -0.029,5.149 -0.084,6.217 l 1.494,0.058 C -0.161,6.854 -0.184,5.415 -0.184,3.578 -0.184,2.399 -0.122,1.207 0,0"
             style="fill:#ffffff;fill-opacity:1;fill-rule:nonzero;stroke:none"
             id="path4226"
             inkscape:connector-curvature="0" />
        </g>
        <g
           id="g4228"
           transform="translate(302.1816,428.8306)">
          <path
             d="m 0,0 -0.373,-1.32 c -0.432,0.172 -0.834,0.258 -1.205,0.258 -1.039,0 -1.715,-0.496 -2.025,-1.486 0,-2.546 0.017,-4.325 0.05,-5.338 h -1.469 c 0.088,1.755 0.133,3.116 0.133,4.084 0,1.312 -0.131,2.568 -0.391,3.769 l 1.453,0.207 c 0.105,-0.609 0.158,-1.015 0.158,-1.22 h 0.066 c 0.597,0.88 1.294,1.32 2.091,1.32 C -1.09,0.274 -0.588,0.183 0,0"
             style="fill:#ffffff;fill-opacity:1;fill-rule:nonzero;stroke:none"
             id="path4230"
             inkscape:connector-curvature="0" />
        </g>
        <g
           id="g4232"
           transform="translate(308.6133,425.8008)">
          <path
             d="m 0,0 c 0,1.555 -0.648,2.333 -1.949,2.333 -1.328,0 -2.112,-0.809 -2.35,-2.424 z m 1.387,0.017 c 0,-0.233 -0.01,-0.554 -0.033,-0.963 l -5.704,-0.1 c 0.057,-0.808 0.37,-1.484 0.94,-2.03 0.57,-0.545 1.324,-0.817 2.265,-0.817 0.842,0 1.629,0.102 2.366,0.307 L 1.08,-4.756 C 0.537,-4.972 -0.246,-5.08 -1.27,-5.08 c -1.437,0 -2.535,0.393 -3.291,1.179 -0.755,0.785 -1.132,1.743 -1.132,2.872 0,1.206 0.343,2.245 1.033,3.116 0.689,0.872 1.615,1.308 2.777,1.308 1.069,0 1.879,-0.315 2.436,-0.946 C 1.109,1.818 1.387,1.007 1.387,0.017"
             style="fill:#ffffff;fill-opacity:1;fill-rule:nonzero;stroke:none"
             id="path4234"
             inkscape:connector-curvature="0" />
        </g>
        <g
           id="g4236"
           transform="translate(318.791,420.9448)">
          <path
             d="m 0,0 h -1.42 c 0.061,1.167 0.092,2.379 0.092,3.636 0,1.455 -0.031,2.529 -0.092,3.22 l -1.893,-0.946 -0.39,0.722 2.988,2.2 H 0 C -0.057,7.044 -0.084,5.312 -0.084,3.636 -0.084,2.452 -0.057,1.24 0,0"
             style="fill:#ffffff;fill-opacity:1;fill-rule:nonzero;stroke:none"
             id="path4238"
             inkscape:connector-curvature="0" />
        </g>
        <g
           id="g4240"
           transform="translate(327.332,424.8379)">
          <path
             d="m 0,0 c 0,1.267 -0.234,2.22 -0.705,2.86 -0.471,0.639 -1.027,0.958 -1.668,0.958 -0.648,0 -1.156,-0.229 -1.523,-0.689 -0.37,-0.459 -0.553,-1.009 -0.553,-1.651 0,-0.703 0.22,-1.317 0.664,-1.843 0.443,-0.526 1.06,-0.789 1.851,-0.789 0.84,0 1.487,0.385 1.934,1.154 m 1.445,0.191 c 0,-4.726 -2.007,-7.209 -6.019,-7.445 l -0.24,0.986 c 3.015,0.206 4.615,1.952 4.798,5.239 H -0.1 c -0.552,-0.792 -1.435,-1.187 -2.648,-1.187 -0.979,0 -1.746,0.339 -2.303,1.016 -0.556,0.679 -0.834,1.485 -0.834,2.42 0,1.002 0.319,1.872 0.959,2.611 0.639,0.739 1.537,1.108 2.694,1.108 1.017,0 1.884,-0.4 2.601,-1.199 0.717,-0.8 1.076,-1.983 1.076,-3.549"
             style="fill:#ffffff;fill-opacity:1;fill-rule:nonzero;stroke:none"
             id="path4242"
             inkscape:connector-curvature="0" />
        </g>
        <g
           id="g4244"
           transform="translate(336.6543,424.8379)">
          <path
             d="m 0,0 c 0,1.267 -0.234,2.22 -0.705,2.86 -0.471,0.639 -1.027,0.958 -1.668,0.958 -0.648,0 -1.156,-0.229 -1.523,-0.689 -0.37,-0.459 -0.553,-1.009 -0.553,-1.651 0,-0.703 0.22,-1.317 0.664,-1.843 0.443,-0.526 1.06,-0.789 1.851,-0.789 0.84,0 1.487,0.385 1.934,1.154 m 1.445,0.191 c 0,-4.726 -2.007,-7.209 -6.019,-7.445 l -0.24,0.986 c 3.015,0.206 4.615,1.952 4.798,5.239 H -0.1 c -0.552,-0.792 -1.435,-1.187 -2.648,-1.187 -0.979,0 -1.746,0.339 -2.303,1.016 -0.556,0.679 -0.834,1.485 -0.834,2.42 0,1.002 0.319,1.872 0.959,2.611 0.639,0.739 1.537,1.108 2.694,1.108 1.017,0 1.884,-0.4 2.601,-1.199 0.717,-0.8 1.076,-1.983 1.076,-3.549"
             style="fill:#ffffff;fill-opacity:1;fill-rule:nonzero;stroke:none"
             id="path4246"
             inkscape:connector-curvature="0" />
        </g>
        <g
           id="g4248"
           transform="translate(346.3828,429.7021)">
          <path
             d="m 0,0 c 0,-1.024 -0.4,-2.435 -1.203,-4.233 -0.332,-0.747 -1.074,-2.222 -2.225,-4.425 -0.797,-1.528 -1.195,-2.474 -1.195,-2.839 l -1.461,0.176 c 0,0.353 0.418,1.258 1.254,2.713 1.443,2.54 2.213,3.904 2.307,4.092 0.836,1.589 1.253,2.709 1.253,3.362 -1.195,0 -3.007,-0.072 -5.437,-0.216 L -6.656,0 Z"
             style="fill:#ffffff;fill-opacity:1;fill-rule:nonzero;stroke:none"
             id="path4250"
             inkscape:connector-curvature="0" />
        </g>
      </g>
    </g>
  </g>
</svg>
