<?xml version="1.0" encoding="utf-8"?>
<!-- Generator: Adobe Illustrator 26.0.0, SVG Export Plug-In . SVG Version: 6.00 Build 0)  -->
<svg version="1.1" id="Layer_1" xmlns="http://www.w3.org/2000/svg" xmlns:xlink="http://www.w3.org/1999/xlink" x="0px" y="0px"
	 width="1083.3927px" height="226px" viewBox="0 0 1083.3927 226" style="enable-background:new 0 0 1083.3927 226;"
	 xml:space="preserve">
<style type="text/css">
	.st0{fill:#A7A9AC;}
	.st1{fill:#00AEEF;}
</style>
<rect id="Separator" x="481.8204" width="7" height="226"/>
<g id="Autorizovaný_prodejce_-_vektor">
	<path d="M572.9503,91.4404h-19.5361l-3.6299,8.9756h-13.332l20.3936-46.2002h12.8701l20.46,46.2002h-13.5957L572.9503,91.4404z
		 M569.1222,81.8037l-5.9404-14.7842l-5.9395,14.7842H569.1222z"/>
	<path d="M596.0822,95.7305c-3.8057-3.7402-5.709-9.042-5.709-15.9062V54.2158h13.0684v25.2119
		c0,7.3926,2.9258,11.0879,8.7783,11.0879c5.8076,0,8.7119-3.6953,8.7119-11.0879V54.2158h12.8701v25.6084
		c0,6.8643-1.9043,12.166-5.709,15.9062c-3.8066,3.7402-9.1416,5.6094-16.0049,5.6094
		C605.2238,101.3398,599.8878,99.4707,596.0822,95.7305z"/>
	<path d="M651.3575,64.5781h-14.1904V54.2158h41.3828v10.3623h-14.124v35.8379h-13.0684V64.5781z"/>
	<path d="M690.7931,98.2383c-3.8936-2.0684-6.9531-4.9277-9.1738-8.5801c-2.2227-3.6514-3.333-7.7656-3.333-12.3418
		s1.1104-8.6895,3.333-12.3428c2.2207-3.6514,5.2803-6.5107,9.1738-8.5801c3.8936-2.0674,8.2832-3.1016,13.167-3.1016
		s9.2734,1.0342,13.167,3.1016c3.8936,2.0693,6.9521,4.9287,9.1738,8.5801c2.2217,3.6533,3.333,7.7666,3.333,12.3428
		s-1.1113,8.6904-3.333,12.3418c-2.2217,3.6523-5.2803,6.5117-9.1738,8.5801s-8.2832,3.1016-13.167,3.1016
		S694.6866,100.3066,690.7931,98.2383z M710.296,88.8662c1.8916-1.0996,3.3877-2.6504,4.4883-4.6533
		c1.0996-2.002,1.6494-4.2998,1.6494-6.8965c0-2.5957-0.5498-4.8945-1.6494-6.8975c-1.1006-2.002-2.5967-3.5527-4.4883-4.6533
		c-1.8926-1.0986-4.0039-1.6494-6.3359-1.6494c-2.333,0-4.4443,0.5508-6.3359,1.6494c-1.8926,1.1006-3.3887,2.6514-4.4883,4.6533
		c-1.0996,2.0029-1.6494,4.3018-1.6494,6.8975c0,2.5967,0.5498,4.8945,1.6494,6.8965c1.0996,2.0029,2.5957,3.5537,4.4883,4.6533
		c1.8916,1.1006,4.0029,1.6494,6.3359,1.6494C706.2921,90.5156,708.4034,89.9668,710.296,88.8662z"/>
	<path d="M752.7345,88.1396h-7.1279v12.2764h-13.0684V54.2158h21.1201c4.1797,0,7.8096,0.6934,10.8896,2.0791
		c3.0791,1.3857,5.4551,3.3662,7.1279,5.9404c1.6719,2.5732,2.5078,5.5996,2.5078,9.0742c0,3.3447-0.7812,6.2598-2.3428,8.7451
		c-1.5625,2.4863-3.7949,4.4336-6.6992,5.8418l9.9668,14.5195h-13.9922L752.7345,88.1396z M758.9376,66.2939
		c-1.3643-1.1875-3.3887-1.7822-6.0713-1.7822h-7.2598V78.042h7.2598c2.6826,0,4.707-0.583,6.0713-1.749
		c1.3643-1.165,2.0469-2.8262,2.0469-4.9834C760.9845,69.1543,760.3019,67.4824,758.9376,66.2939z"/>
	<path d="M779.2657,54.2158h13.0684v46.2002h-13.0684V54.2158z"/>
	<path d="M838.5988,90.0537v10.3623h-41.3828v-8.1836l23.2988-27.6543h-22.7041V54.2158h39.7979v8.1846l-23.2979,27.6533H838.5988z"
		/>
	<path d="M851.964,98.2383c-3.8936-2.0684-6.9531-4.9277-9.1738-8.5801c-2.2227-3.6514-3.333-7.7656-3.333-12.3418
		s1.1104-8.6895,3.333-12.3428c2.2207-3.6514,5.2803-6.5107,9.1738-8.5801c3.8936-2.0674,8.2832-3.1016,13.167-3.1016
		s9.2734,1.0342,13.167,3.1016c3.8936,2.0693,6.9521,4.9287,9.1738,8.5801c2.2217,3.6533,3.333,7.7666,3.333,12.3428
		s-1.1113,8.6904-3.333,12.3418c-2.2217,3.6523-5.2803,6.5117-9.1738,8.5801s-8.2832,3.1016-13.167,3.1016
		S855.8575,100.3066,851.964,98.2383z M871.4669,88.8662c1.8916-1.0996,3.3877-2.6504,4.4883-4.6533
		c1.0996-2.002,1.6494-4.2998,1.6494-6.8965c0-2.5957-0.5498-4.8945-1.6494-6.8975c-1.1006-2.002-2.5967-3.5527-4.4883-4.6533
		c-1.8926-1.0986-4.0039-1.6494-6.3359-1.6494c-2.333,0-4.4443,0.5508-6.3359,1.6494c-1.8926,1.1006-3.3887,2.6514-4.4883,4.6533
		c-1.0996,2.0029-1.6494,4.3018-1.6494,6.8975c0,2.5967,0.5498,4.8945,1.6494,6.8965c1.0996,2.0029,2.5957,3.5537,4.4883,4.6533
		c1.8916,1.1006,4.0029,1.6494,6.3359,1.6494C867.463,90.5156,869.5743,89.9668,871.4669,88.8662z"/>
	<path d="M940.8341,54.2158l-19.8008,46.2002h-12.8701l-19.7334-46.2002h14.124l12.54,30.0967l12.8037-30.0967H940.8341z"/>
	<path d="M966.7052,91.4404h-19.5361l-3.6299,8.9756h-13.332l20.3936-46.2002h12.8701l20.46,46.2002h-13.5957L966.7052,91.4404z
		 M962.8771,81.8037l-5.9404-14.7842l-5.9395,14.7842H962.8771z"/>
	<path d="M1031.5831,54.2158v46.2002h-10.7578l-20.3945-24.6182v24.6182h-12.8037V54.2158h10.7578l20.3945,24.6182V54.2158
		H1031.5831z"/>
	<path d="M1065.7052,83.8496v16.5664h-13.0684V83.6523l-17.6221-29.4365h13.7939l10.9561,18.3486l10.9561-18.3486h12.6719
		L1065.7052,83.8496z M1061.547,40.4219h12.54l-12.4082,10.0322h-8.9756L1061.547,40.4219z"/>
	<path d="M574.006,123.2949c3.0791,1.3857,5.4551,3.3662,7.1279,5.9404c1.6719,2.5732,2.5078,5.5996,2.5078,9.0742
		c0,3.4766-0.8359,6.4912-2.5078,9.042c-1.6729,2.5527-4.0488,4.5215-7.1279,5.9072c-3.0801,1.3857-6.71,2.0791-10.8896,2.0791
		h-8.0518v12.0781h-13.0684v-46.2002h21.1201C567.296,121.2158,570.9259,121.9092,574.006,123.2949z M568.3956,143.293
		c1.3643-1.165,2.0469-2.8262,2.0469-4.9834c0-2.1553-0.6826-3.8271-2.0469-5.0156c-1.3643-1.1875-3.3887-1.7822-6.0713-1.7822
		h-7.2598v13.5303h7.2598C565.007,145.042,567.0314,144.459,568.3956,143.293z"/>
	<path d="M608.0626,155.1396h-7.1279v12.2764h-13.0684v-46.2002h21.1201c4.1797,0,7.8096,0.6934,10.8896,2.0791
		c3.0791,1.3857,5.4551,3.3662,7.1279,5.9404c1.6719,2.5732,2.5078,5.5996,2.5078,9.0742c0,3.3447-0.7812,6.2598-2.3428,8.7451
		c-1.5625,2.4863-3.7949,4.4336-6.6992,5.8418l9.9668,14.5195h-13.9922L608.0626,155.1396z M614.2657,133.2939
		c-1.3643-1.1875-3.3887-1.7822-6.0713-1.7822h-7.2598v13.5303h7.2598c2.6826,0,4.707-0.583,6.0713-1.749
		c1.3643-1.165,2.0469-2.8262,2.0469-4.9834C616.3126,136.1543,615.63,134.4824,614.2657,133.2939z"/>
	<path d="M644.7257,165.2383c-3.8936-2.0684-6.9531-4.9277-9.1738-8.5801c-2.2227-3.6514-3.333-7.7656-3.333-12.3418
		s1.1104-8.6895,3.333-12.3428c2.2207-3.6514,5.2803-6.5107,9.1738-8.5801c3.8936-2.0674,8.2832-3.1016,13.167-3.1016
		s9.2734,1.0342,13.167,3.1016c3.8936,2.0693,6.9521,4.9287,9.1738,8.5801c2.2217,3.6533,3.333,7.7666,3.333,12.3428
		s-1.1113,8.6904-3.333,12.3418c-2.2217,3.6523-5.2803,6.5117-9.1738,8.5801s-8.2832,3.1016-13.167,3.1016
		S648.6193,167.3066,644.7257,165.2383z M664.2286,155.8662c1.8916-1.0996,3.3877-2.6504,4.4883-4.6533
		c1.0996-2.002,1.6494-4.2998,1.6494-6.8965c0-2.5957-0.5498-4.8945-1.6494-6.8975c-1.1006-2.002-2.5967-3.5527-4.4883-4.6533
		c-1.8926-1.0986-4.0039-1.6494-6.3359-1.6494c-2.333,0-4.4443,0.5508-6.3359,1.6494c-1.8926,1.1006-3.3887,2.6514-4.4883,4.6533
		c-1.0996,2.0029-1.6494,4.3018-1.6494,6.8975c0,2.5967,0.5498,4.8945,1.6494,6.8965c1.0996,2.0029,2.5957,3.5537,4.4883,4.6533
		c1.8916,1.1006,4.0029,1.6494,6.3359,1.6494C660.2247,157.5156,662.3361,156.9668,664.2286,155.8662z"/>
	<path d="M688.3185,121.2158h21.8457c5.0596,0,9.5479,0.9473,13.4639,2.8379c3.916,1.8926,6.9521,4.5771,9.1084,8.0527
		c2.1553,3.4756,3.2344,7.5459,3.2344,12.21s-1.0791,8.7344-3.2344,12.21c-2.1562,3.4756-5.1924,6.1602-9.1084,8.0518
		c-3.916,1.8926-8.4043,2.8379-13.4639,2.8379h-21.8457V121.2158z M709.6368,156.9883c3.96,0,7.1377-1.1221,9.5361-3.3662
		s3.5977-5.3457,3.5977-9.3057s-1.1992-7.0625-3.5977-9.3066s-5.5762-3.3662-9.5361-3.3662h-8.25v25.3447H709.6368z"/>
	<path d="M777.8136,157.3184v10.0977h-37.0918v-46.2002h36.2334v10.0986h-23.2979v7.7871h20.5264v9.7686h-20.5264v8.4482H777.8136z"
		/>
	<path d="M786.921,166.5908c-2.7715-1.165-5.0381-2.8477-6.7979-5.0488l7.1279-8.4482c2.4639,3.2129,5.126,4.8184,7.9863,4.8184
		c1.8916,0,3.333-0.5713,4.3232-1.7158c0.9902-1.1436,1.4844-2.8154,1.4844-5.0166v-19.8652h-15.9717v-10.0986h28.9082v29.1719
		c0,5.9844-1.5078,10.4727-4.5215,13.4639c-3.0137,2.9932-7.4473,4.4883-13.2988,4.4883
		C792.7726,168.3398,789.6935,167.7559,786.921,166.5908z"/>
	<path d="M829.5245,165.2715c-3.8506-2.0469-6.875-4.8945-9.0752-8.5479c-2.2002-3.6514-3.2998-7.7881-3.2998-12.4072
		c0-4.6201,1.0996-8.7559,3.2998-12.4082c2.2002-3.6514,5.2246-6.501,9.0752-8.5469c3.8496-2.0459,8.1943-3.0693,13.0352-3.0693
		c4.2236,0,8.0293,0.749,11.418,2.2441c3.3877,1.4961,6.2041,3.6523,8.4473,6.4678l-8.3154,7.5244
		c-2.9932-3.6074-6.623-5.4121-10.8896-5.4121c-2.5088,0-4.7422,0.5508-6.6992,1.6494c-1.959,1.1006-3.4766,2.6514-4.5547,4.6533
		c-1.0781,2.0029-1.6162,4.3018-1.6162,6.8975c0,2.5967,0.5381,4.8945,1.6162,6.8965c1.0781,2.0029,2.5957,3.5537,4.5547,4.6533
		c1.957,1.1006,4.1904,1.6494,6.6992,1.6494c4.2666,0,7.8965-1.8037,10.8896-5.4111l8.3154,7.5234
		c-2.2432,2.8164-5.0596,4.9727-8.4473,6.4678c-3.3887,1.4961-7.1943,2.2441-11.418,2.2441
		C837.7189,168.3398,833.3741,167.3174,829.5245,165.2715z"/>
	<path d="M901.9581,157.3184v10.0977h-37.0918v-46.2002h36.2334v10.0986h-23.2979v7.7871h20.5264v9.7686h-20.5264v8.4482H901.9581z"
		/>
</g>
<g id="Logo_Sinks">
	<path class="st0" d="M249.8229,205h108.679c37.3258,0,66.3185-28.6454,66.3185-65.9713V18.8915h-21.7011v120.1372
		c0,25.1733-19.2706,44.4438-44.6174,44.4438h-108.679V205 M174.9975,183.2989H66.3185c-25.3469,0-44.6174-19.097-44.6174-44.4438
		V18.8915H0v120.1372C0,176.3546,28.9926,205,66.3185,205h108.679V183.2989z"/>
	<path class="st1" d="M212.3234,73.9254c-7.986,0-12.3262,3.2986-16.3192,8.6804c-0.3472,0.3472-0.6944,0.6944-1.2153,0.6944
		c-0.868,0-1.5625-0.6944-1.5625-1.5625l0,0l0,0v-6.5971h-13.7151v57.1173h14.7567v-27.6038
		c0-10.0693,5.9027-18.5761,13.3679-18.5761c5.3819,0,7.118,3.6458,7.118,9.5485v36.4578h14.5831v-39.93
		C229.3371,82.0851,225.1704,73.9254,212.3234,73.9254"/>
	<path class="st1" d="M102.9499,133.4732c-5.5555,0-11.111-0.5208-15.972-1.9097l0.868-13.8887
		c4.3402,1.5625,10.5901,2.7777,16.3192,2.7777c7.6388,0,13.5415-3.125,13.5415-10.2429c0-14.7567-32.6384-7.986-32.6384-33.5065
		c0-13.7151,10.9373-23.2636,29.6871-23.2636c4.3402,0,9.5485,0.5208,14.0623,1.3889l-0.868,13.0206
		c-4.3402-1.2153-9.2013-2.0833-13.8887-2.0833c-8.6804,0-13.0207,3.993-13.0207,9.3749c0,13.8887,32.812,8.6804,32.812,32.9856
		C133.8523,122.7095,122.0469,133.4732,102.9499,133.4732"/>
	<path class="st1" d="M155.0325,69.0644c5.0347,0,9.2013-3.993,9.2013-9.0277c0-4.861-4.1666-8.854-9.2013-8.854
		s-9.2013,3.993-9.2013,8.854S149.9979,69.0644,155.0325,69.0644"/>
	<rect x="147.5674" y="75.1407" class="st1" width="14.7567" height="57.1173"/>
	<path class="st1" d="M319.0927,133.2996c-4.1666,0-8.3332-0.5208-11.979-1.0416l0.3472-11.979
		c3.6458,0.868,7.986,1.7361,12.3262,1.7361c5.7291,0,9.3748-2.2569,9.3748-6.0763c0-10.0693-23.2635-4.3402-23.2635-23.7844
		c0-10.0693,8.1596-18.2289,24.3052-18.2289c3.2986,0,7.118,0.5208,10.5901,1.0416l-0.5208,11.6318
		c-3.2986-0.868-7.118-1.5625-10.5901-1.5625c-5.7291,0-8.5068,2.2569-8.5068,5.9027c0,9.3749,23.6108,5.2083,23.6108,23.6108
		C344.7868,125.8344,334.8911,133.2996,319.0927,133.2996"/>
	<path class="st1" d="M298.9541,132.258l-21.5275-31.076l20.1386-26.0413H279.51l-15.2776,21.5275
		c-0.3472,0.3472-0.868,0.6944-1.3889,0.6944c-0.868,0-1.7361-0.6944-1.7361-1.7361V53.4396h-14.7567v78.8183h14.7567v-24.826l0,0
		c0-0.868,1.7361-1.7361,1.7361-1.7361c0.5208,0,1.0417,0.3472,1.3889,0.6944l16.3192,25.8677H298.9541"/>
</g>
<g>
</g>
<g>
</g>
<g>
</g>
<g>
</g>
<g>
</g>
<g>
</g>
<g>
</g>
<g>
</g>
<g>
</g>
<g>
</g>
<g>
</g>
<g>
</g>
<g>
</g>
<g>
</g>
<g>
</g>
</svg>
